<svg width="100%" height="100%" viewBox="0 0 453 319" version="1.1" xmlns="http://www.w3.org/2000/svg" xmlns:xlink="http://www.w3.org/1999/xlink" xml:space="preserve" xmlns:serif="http://www.serif.com/" style="fill-rule:evenodd;clip-rule:evenodd;stroke-linejoin:round;stroke-miterlimit:2;">
    <g transform="matrix(1,0,0,1,-503.527,-1098.79)">
        <g transform="matrix(1,0,0,1,8,10)">
            <path d="M609.918,1107.48C610.469,1107.24 611.025,1107.01 611.584,1106.78C624.711,1101.46 639.921,1098.79 657.212,1098.79L703.096,1098.79C703.118,1098.79 701.945,1104.65 701.372,1107.5L609.918,1107.48ZM738.108,1107.51C738.683,1107.26 739.261,1107.02 739.845,1106.78C752.972,1101.46 768.181,1098.79 785.473,1098.79L831.344,1098.79C831.445,1098.79 830.228,1104.69 829.638,1107.53L738.108,1107.51ZM838.03,1107.54C839.015,1102.85 839.893,1098.8 839.981,1098.8L901.166,1099.11C901.166,1099.11 900.344,1103.01 899.384,1107.55L838.03,1107.54ZM896.829,1119.64C896.582,1120.81 896.432,1121.52 896.431,1121.53L894.925,1128.55L833.633,1128.53L835.136,1121.53C835.141,1121.5 835.284,1120.8 835.518,1119.66L896.829,1119.64ZM892.331,1140.64L889.563,1153.55L828.271,1153.53L831.032,1140.66L892.331,1140.64ZM886.968,1165.64L884.201,1178.55L822.909,1178.53L825.67,1165.66L886.968,1165.64ZM947.78,1190.63L944.64,1205.56L510.594,1205.46L513.647,1190.72L947.78,1190.63ZM942.099,1217.63L939.38,1230.56L505.413,1230.46L508.052,1217.72L942.099,1217.63ZM870.656,1242.65L867.89,1255.54L806.604,1255.53L809.359,1242.66L870.656,1242.65ZM865.292,1267.65L862.526,1280.54L801.251,1280.53L804.005,1267.66L865.292,1267.65ZM859.928,1292.65L857.163,1305.54L795.898,1305.53L798.652,1292.66L859.928,1292.65ZM854.564,1317.65L853.586,1322.21C852.998,1325.15 852.53,1327.93 852.184,1330.54L790.594,1330.52C790.794,1329.46 791.008,1328.38 791.236,1327.3L793.298,1317.66L854.564,1317.65ZM851.542,1342.65C851.915,1346.53 853.306,1349.59 855.715,1351.81C857.833,1353.77 861.078,1355.01 865.451,1355.54L788.469,1355.52C788.303,1351.48 788.433,1347.19 788.858,1342.67L851.542,1342.65ZM910.008,1367.64L907.248,1380.55L794.818,1380.53C793.371,1377.91 792.171,1375.11 791.216,1372.11C790.76,1370.67 790.359,1369.19 790.014,1367.66L910.008,1367.64ZM904.664,1392.64L901.573,1407.1C901.573,1407.1 891.698,1407.13 891.646,1407.13L859.693,1407.13C840.643,1407.13 825.409,1404.25 813.99,1398.49C810.65,1396.81 807.637,1394.87 804.952,1392.66L904.664,1392.64ZM703.429,1392.68L702.53,1396.89C702.518,1396.95 700.433,1407.13 700.39,1407.13L649.587,1407.13C649.562,1407.13 639.047,1407.13 639.054,1407.09L642.131,1392.7L703.429,1392.68ZM575.163,1392.71L574.27,1396.89C574.263,1396.93 572.477,1407.13 572.44,1407.13L521.327,1407.13C521.286,1407.13 510.797,1407.08 510.802,1407.06L513.865,1392.72L575.163,1392.71ZM516.486,1380.46L519.208,1367.72L580.506,1367.71L577.778,1380.47L516.486,1380.46ZM521.829,1355.46L524.551,1342.72L585.85,1342.71L583.121,1355.48L521.829,1355.46ZM527.171,1330.46L529.895,1317.72L591.193,1317.71L588.464,1330.48L527.171,1330.46ZM532.514,1305.46L535.238,1292.72L596.536,1292.71L593.806,1305.48L532.514,1305.46ZM537.857,1280.46L540.581,1267.72L601.879,1267.7L599.149,1280.48L537.857,1280.46ZM543.199,1255.46L545.924,1242.72L607.222,1242.7L604.492,1255.48L543.199,1255.46ZM559.523,1178.47L560.22,1175.25C560.945,1171.96 561.751,1168.78 562.636,1165.71L624.911,1165.7C623.246,1169.12 621.973,1172.99 621.093,1177.33L620.841,1178.48L559.523,1178.47ZM566.833,1153.47C568.671,1148.91 570.728,1144.66 573.005,1140.71L694.309,1140.68C693.704,1143.71 692.846,1147.95 692.793,1147.95L656.145,1147.95C647.46,1147.95 640.428,1149.79 635.048,1153.49L566.833,1153.47ZM581.572,1128.47C584.266,1125.29 587.161,1122.37 590.257,1119.71L698.776,1119.68L696.881,1128.5L581.572,1128.47ZM827.042,1119.66L825.135,1128.53L709.807,1128.51C712.517,1125.3 715.431,1122.35 718.549,1119.68L827.042,1119.66ZM822.539,1140.66C821.898,1143.68 820.985,1147.95 820.944,1147.95L784.405,1147.95C775.697,1147.95 768.65,1149.8 763.265,1153.52L695.081,1153.5C696.926,1148.92 698.993,1144.65 701.281,1140.68L822.539,1140.66ZM687.777,1178.5L688.481,1175.25C689.208,1171.95 690.016,1168.76 690.904,1165.69L753.184,1165.67C751.513,1169.1 750.236,1172.98 749.353,1177.33L749.095,1178.51L687.777,1178.5ZM735.489,1242.68L732.746,1255.51L671.453,1255.5L674.19,1242.69L735.489,1242.68ZM730.145,1267.68L727.403,1280.51L666.111,1280.5L668.847,1267.69L730.145,1267.68ZM724.802,1292.68L722.06,1305.51L660.768,1305.49L663.504,1292.69L724.802,1292.68ZM719.459,1317.68L716.718,1330.51L655.425,1330.49L658.161,1317.69L719.459,1317.68ZM714.116,1342.68L711.375,1355.51L650.083,1355.49L652.817,1342.69L714.116,1342.68ZM708.773,1367.68L706.032,1380.5L644.74,1380.49L647.474,1367.69L708.773,1367.68Z" style="fill:none;stroke:black;stroke-width:1px;"/>
        </g>
        <path d="M674.848,1239.61L607.883,1239.61L574.27,1396.89C574.263,1396.93 572.477,1407.13 572.44,1407.13L521.327,1407.13C521.286,1407.13 510.797,1407.08 510.802,1407.06L546.587,1239.61L513.775,1239.61C513.567,1239.61 503.524,1239.58 503.527,1239.56L513.693,1190.5C513.703,1190.44 524.103,1190.46 524.113,1190.46L556.926,1190.46L560.22,1175.25C564.135,1157.48 570.393,1142.96 578.993,1131.69C587.593,1120.41 598.457,1112.11 611.584,1106.78C624.711,1101.46 639.921,1098.79 657.212,1098.79L703.096,1098.79C703.125,1098.79 701.073,1108.99 701.067,1109.03L694.901,1137.71C694.891,1137.77 692.875,1147.95 692.793,1147.95L656.145,1147.95C645.971,1147.95 638.065,1150.48 632.427,1155.55C626.789,1160.62 623.011,1167.88 621.093,1177.33L618.221,1190.46L685.186,1190.46L688.481,1175.25C692.396,1157.48 698.653,1142.96 707.253,1131.69C715.854,1120.41 726.717,1112.11 739.845,1106.78C752.972,1101.46 768.181,1098.79 785.473,1098.79L831.344,1098.79C831.476,1098.79 829.353,1108.89 829.327,1109.03L823.162,1137.71C823.157,1137.74 821.008,1147.95 820.944,1147.95L784.405,1147.95C774.231,1147.95 766.326,1150.48 760.688,1155.55C755.05,1160.62 751.271,1167.88 749.353,1177.33L746.482,1190.46L820.35,1190.46L835.136,1121.53C835.164,1121.38 839.774,1098.8 839.981,1098.8L901.166,1099.11C901.167,1099.11 896.434,1121.51 896.431,1121.53L881.646,1190.46L933.736,1190.46C933.881,1190.46 947.791,1190.58 947.788,1190.59L937.549,1239.26C937.548,1239.27 923.442,1239.61 923.397,1239.61L871.307,1239.61L853.586,1322.21C852.21,1329.09 851.495,1335.07 851.441,1340.16C851.387,1345.25 852.811,1349.13 855.715,1351.81C858.619,1354.5 863.643,1355.84 870.787,1355.84L902.408,1355.84C902.45,1355.84 912.526,1355.86 912.518,1355.9L901.573,1407.1C901.573,1407.1 891.698,1407.13 891.646,1407.13L859.693,1407.13C840.643,1407.13 825.409,1404.25 813.99,1398.49C802.57,1392.74 794.979,1383.94 791.216,1372.11C787.453,1360.27 787.46,1345.33 791.236,1327.3L810.012,1239.61L736.143,1239.61L702.53,1396.89C702.518,1396.95 700.433,1407.13 700.39,1407.13L649.587,1407.13C649.562,1407.13 639.047,1407.13 639.054,1407.09L674.848,1239.61Z"/>
    </g>
</svg>
