<svg width="33" height="32" viewBox="0 0 33 32" fill="none" xmlns="http://www.w3.org/2000/svg">
<g clip-path="url(#clip0_1128_8441)">
<path d="M31.3201 4.57H29.8001V3.05H28.2701V1.52H26.7501V0H3.8901V6.1H5.4201V7.62H6.9401V6.1H25.2301V7.62H26.7501V22.86H25.2301V24.38H23.7001V25.9H3.8901V24.38H2.3701V25.9H0.850098V32H2.3701V27.43H22.1801V32H32.8501V6.1H31.3201V4.57ZM6.9401 4.57H5.4201V1.52H6.9401V4.57ZM9.9901 4.57H8.4601V1.52H9.9901V4.57ZM23.7001 4.57H11.5101V1.52H23.7001V4.57ZM31.3201 15.24H29.8001V7.62H28.2701V6.1H26.7501V4.57H25.2301V3.05H26.7501V4.57H28.2701V6.1H29.8001V7.62H31.3201V15.24Z" fill="currentColor"/>
<path d="M22.1801 15.24H20.6501V16.76H22.1801V15.24Z" fill="currentColor"/>
<path d="M22.1801 22.86H17.6101V24.38H22.1801V22.86Z" fill="currentColor"/>
<path d="M20.6501 12.1899H19.1301V13.7099H20.6501V12.1899Z" fill="currentColor"/>
<path d="M20.6501 32V28.95H16.0801V32H17.6101V30.4799H19.1301V32H20.6501Z" fill="currentColor"/>
<path d="M20.6501 16.76H14.5601V18.29H20.6501V16.76Z" fill="currentColor"/>
<path d="M16.0801 12.1899H14.5601V13.7099H16.0801V12.1899Z" fill="currentColor"/>
<path d="M14.56 15.24H13.04V16.76H14.56V15.24Z" fill="currentColor"/>
<path d="M13.04 22.86H11.51V24.38H13.04V22.86Z" fill="currentColor"/>
<path d="M25.23 21.33V9.14001H9.98999V21.33H25.23ZM11.51 10.67H23.7V19.81H11.51V10.67Z" fill="currentColor"/>
<path d="M9.99021 22.86H8.46021V24.38H9.99021V22.86Z" fill="currentColor"/>
<path d="M8.46019 7.62H6.94019V21.33H8.46019V7.62Z" fill="currentColor"/>
<path d="M6.94017 21.33H5.42017V22.86H6.94017V21.33Z" fill="currentColor"/>
<path d="M5.42014 22.86H3.89014V24.38H5.42014V22.86Z" fill="currentColor"/>
</g>
<defs>
<clipPath id="clip0_1128_8441">
<rect width="32" height="32" fill="white" transform="translate(0.850098)"/>
</clipPath>
</defs>
</svg>
