<svg xmlns="http://www.w3.org/2000/svg" viewBox="0 0 24 24" id="Search-User--Streamline-Pixel" height="24" width="24"><desc>Search User Streamline Icon: https://streamlinehq.com</desc><title>search-user</title><g><path d="M22.29 17.715h-1.1475V16.575000000000003h-1.1400000000000001v-1.1475h-1.1475v-2.2800000000000002h-1.1400000000000001v2.2800000000000002H16.575000000000003v1.1475h-1.1475v1.1400000000000001h-2.2800000000000002v1.1400000000000001h2.2800000000000002v1.1475h1.1475v1.1400000000000001h1.1400000000000001v1.1475h1.1400000000000001v1.1400000000000001h3.435v-1.1400000000000001h1.1400000000000001v-3.435h-1.1400000000000001Zm0 3.4275h-1.1475v-1.1400000000000001h-1.1400000000000001v-1.1475h-1.1475v-1.1400000000000001h1.1475v1.1400000000000001h1.1400000000000001v1.1475h1.1475Z" fill="currentColor" stroke-width="0.75"></path><path d="M18.855 7.4325h1.1475v5.715h-1.1475Z" fill="currentColor" stroke-width="0.75"></path><path d="M17.715 5.1450000000000005h1.1400000000000001v2.2874999999999996h-1.1400000000000001Z" fill="currentColor" stroke-width="0.75"></path><path d="M16.575000000000003 4.005h1.1400000000000001v1.1400000000000001H16.575000000000003Z" fill="currentColor" stroke-width="0.75"></path><path d="M15.4275 2.8575h1.1475v1.1475h-1.1475Z" fill="currentColor" stroke-width="0.75"></path><path d="M13.1475 14.287500000000001h1.1400000000000001v1.1400000000000001h-1.1400000000000001Z" fill="currentColor" stroke-width="0.75"></path><path d="M13.1475 1.7175h2.2800000000000002v1.1400000000000001h-2.2800000000000002Z" fill="currentColor" stroke-width="0.75"></path><path d="M7.4325 15.4275h5.715v1.1475H7.4325Z" fill="currentColor" stroke-width="0.75"></path><path d="M12 9.712499999999999h1.1475V12H12Z" fill="currentColor" stroke-width="0.75"></path><path d="M7.4325 18.855h5.715v1.1475H7.4325Z" fill="currentColor" stroke-width="0.75"></path><path d="M8.5725 13.1475H12v1.1400000000000001h-3.4275Z" fill="currentColor" stroke-width="0.75"></path><path d="M7.4325 0.5700000000000001h5.715v1.1475H7.4325Z" fill="currentColor" stroke-width="0.75"></path><path d="M7.4325 9.712499999999999h1.1400000000000001V12H7.4325Z" fill="currentColor" stroke-width="0.75"></path><path d="M5.1450000000000005 17.715h2.2874999999999996v1.1400000000000001H5.1450000000000005Z" fill="currentColor" stroke-width="0.75"></path><path d="M6.285 14.287500000000001h1.1475v1.1400000000000001H6.285Z" fill="currentColor" stroke-width="0.75"></path><path d="M5.1450000000000005 1.7175h2.2874999999999996v1.1400000000000001H5.1450000000000005Z" fill="currentColor" stroke-width="0.75"></path><path d="m6.285 8.5725 1.1475 0 0 -1.1400000000000001 5.715 0 0 1.1400000000000001 1.1400000000000001 0 0 5.715 1.1400000000000001 0 0 -8.0025 -1.1400000000000001 0 0 -1.1400000000000001 -1.1400000000000001 0 0 -1.1400000000000001 -5.715 0 0 1.1400000000000001 -1.1475 0 0 1.1400000000000001 -1.1400000000000001 0 0 8.0025 1.1400000000000001 0 0 -5.715z" fill="currentColor" stroke-width="0.75"></path><path d="M3.9975 16.575000000000003h1.1475v1.1400000000000001H3.9975Z" fill="currentColor" stroke-width="0.75"></path><path d="M3.9975 2.8575h1.1475v1.1475H3.9975Z" fill="currentColor" stroke-width="0.75"></path><path d="M2.8575 15.4275h1.1400000000000001v1.1475H2.8575Z" fill="currentColor" stroke-width="0.75"></path><path d="M2.8575 4.005h1.1400000000000001v1.1400000000000001H2.8575Z" fill="currentColor" stroke-width="0.75"></path><path d="M1.7175 13.1475h1.1400000000000001v2.2800000000000002H1.7175Z" fill="currentColor" stroke-width="0.75"></path><path d="M1.7175 5.1450000000000005h1.1400000000000001v2.2874999999999996H1.7175Z" fill="currentColor" stroke-width="0.75"></path><path d="M0.5700000000000001 7.4325h1.1475v5.715H0.5700000000000001Z" fill="currentColor" stroke-width="0.75"></path></g></svg>