<svg width="33" height="32" viewBox="0 0 33 32" fill="none" xmlns="http://www.w3.org/2000/svg">
<path d="M31.1753 22.86H26.6053V21.33H28.1253V19.81H5.27534V21.33H6.80034V22.86H2.22534V32H31.1753V22.86ZM8.31534 21.33H25.0753V22.86H8.31534V21.33ZM29.6553 30.48H3.74534V24.38H29.6553V30.48Z" fill="currentColor"/>
<path d="M29.6554 1.52H28.1254V19.81H29.6554V1.52Z" fill="currentColor"/>
<path d="M26.6054 25.9H18.9854V27.43H26.6054V25.9Z" fill="currentColor"/>
<path d="M20.5054 10.67H18.9854V12.19H20.5054V10.67Z" fill="currentColor"/>
<path d="M20.5054 7.62H18.9854V9.14H20.5054V7.62Z" fill="currentColor"/>
<path d="M18.9853 12.19H14.4153V13.71H18.9853V12.19Z" fill="currentColor"/>
<path d="M14.4153 10.67H12.8853V12.19H14.4153V10.67Z" fill="currentColor"/>
<path d="M14.4153 7.62H12.8853V9.14H14.4153V7.62Z" fill="currentColor"/>
<path d="M6.80035 18.29H26.6104V3.05H6.80035V18.29ZM8.31535 4.57H25.0754V16.76H8.31535V4.57Z" fill="currentColor"/>
<path d="M9.84535 25.9H6.79535V28.95H9.84535V25.9Z" fill="currentColor"/>
<path d="M28.1253 0H5.27533V1.52H28.1253V0Z" fill="currentColor"/>
<path d="M5.27536 1.52H3.74536V19.81H5.27536V1.52Z" fill="currentColor"/>
</svg>
