<?xml version="1.0" encoding="UTF-8" standalone="no"?>
<svg
   height="24"
   width="24"
   viewBox="0 0 24 24"
   fill="none"
   version="1.1"
   id="svg64"
   xmlns="http://www.w3.org/2000/svg"
   xmlns:svg="http://www.w3.org/2000/svg">
  <defs
     id="defs68" />
  <g
     class="background"
     id="g58">
    <path
       d="M9 22H15C20 22 22 20 22 15V9C22 4 20 2 15 2H9C4 2 2 4 2 9V15C2 20 4 22 9 22Z"
       stroke="#292D32"
       stroke-width="1.5"
       stroke-linecap="round"
       stroke-linejoin="round"
       id="path56"
       style="stroke:#000000;stroke-opacity:1" />
  </g>
  <g
     class="icon"
     id="g62"
     transform="matrix(0.72876775,0,0,0.70058633,3.2547871,3.5929641)">
    <polyline
       data-name="Right"
       fill="none"
       id="Right-2"
       points="3 17.3 3 21 6.7 21"
       stroke="#000000"
       stroke-linecap="round"
       stroke-linejoin="round"
       stroke-width="2"
       transform="translate(2.7443585,-2.8547517)" />
    <!-- <line fill="none" stroke="#000000" stroke-linecap="round" stroke-linejoin="round" stroke-width="2" x1="10" x2="3.8" y1="14" y2="20.2"></line>
    <line fill="none" stroke="#000000" stroke-linecap="round" stroke-linejoin="round" stroke-width="2" x1="14" x2="20.2" y1="10" y2="3.8"></line> -->
    <polyline
       data-name="Right"
       fill="none"
       id="Right-3"
       points="21 6.7 21 3 17.3 3"
       stroke="#000000"
       stroke-linecap="round"
       stroke-linejoin="round"
       stroke-width="2"
       transform="translate(-2.7443585,2.8547517)" />
  </g>
</svg>
