<svg width="99" height="30" viewBox="0 0 99 30" fill="none" xmlns="http://www.w3.org/2000/svg">
    <g clip-path="url(#clip0_1_553)">
        <path d="M7.03266 0H64.2702L62.5953 6.25017H53.4869L51.812 12.5003H60.9204L59.5807 17.4993H50.4724L47.123 30H26.8073L27.4769 27.5003H13.5702L13.905 26.2507H-0.00134277L0.333473 25.0011H42.0541L42.3893 23.7498H28.4826L29.1522 21.2502H15.2455L15.5803 20.0005H1.67356L2.00837 18.7509H43.729L44.0642 17.4997H30.1575L30.7366 15.3381H16.8299L17.2102 13.9194H3.30302L3.68327 12.5008H45.4039L45.7391 11.2495H31.8324L32.502 8.74983H18.5953L18.9301 7.50021H5.02294L5.35776 6.25058H47.0784L47.4136 4.99932H33.5069L34.1765 2.49966H20.2698L20.6046 1.25003H6.69784L7.03266 0ZM98.2332 0H82.3744L80.6995 6.25017H85.4226L79.0586 30H85.4692L91.8332 6.25017H96.5988L98.2332 0ZM57.5252 30H63.9342L67.2836 17.4993H76.3919L77.7316 12.5003H68.6232L70.2981 6.25017H79.4065L81.081 0H65.5636L57.5252 30Z" fill="currentColor"/>
    </g>
    <defs>
    <clipPath id="clip0_1_553">
        <rect width="98.2345" height="30" fill="currentColor"/>
        </clipPath>
    </defs>
</svg>
