<svg width="33" height="32" viewBox="0 0 33 32" fill="none" xmlns="http://www.w3.org/2000/svg">
<g clip-path="url(#clip0_1128_7916)">
<path d="M31.3301 12.19V10.67H29.8001V9.14H28.2801V6.1H26.7601V18.29H28.2801V16.76H29.8001V15.24H31.3301V28.95H32.8501V12.19H31.3301Z" fill="currentColor"/>
<path d="M31.33 28.95H29.8V30.48H31.33V28.95Z" fill="currentColor"/>
<path d="M29.8001 30.48H3.90015V32H29.8001V30.48Z" fill="currentColor"/>
<path d="M26.7601 18.29H25.2301V19.81H26.7601V18.29Z" fill="currentColor"/>
<path d="M25.2301 25.91H23.7101V27.43H25.2301V25.91Z" fill="currentColor"/>
<path d="M25.2301 19.81H23.7101V21.33H25.2301V19.81Z" fill="currentColor"/>
<path d="M23.7101 24.38H22.1801V25.91H23.7101V24.38Z" fill="currentColor"/>
<path d="M23.7101 21.33H22.1801V22.86H23.7101V21.33Z" fill="currentColor"/>
<path d="M23.7101 10.67H22.1801V15.24H23.7101V10.67Z" fill="currentColor"/>
<path d="M22.1802 9.14H20.6602V10.67H22.1802V9.14Z" fill="currentColor"/>
<path d="M22.1801 22.86H11.5201V24.38H22.1801V22.86Z" fill="currentColor"/>
<path d="M22.1801 15.24H19.1401V16.76H22.1801V15.24Z" fill="currentColor"/>
<path d="M19.1401 10.67H14.5701V12.19H17.6101V15.24H19.1401V10.67Z" fill="currentColor"/>
<path d="M17.6101 15.24H14.5701V16.76H17.6101V15.24Z" fill="currentColor"/>
<path d="M20.66 7.62H13.04V9.14H20.66V7.62Z" fill="currentColor"/>
<path d="M20.66 18.29H13.04V19.81H20.66V18.29Z" fill="currentColor"/>
<path d="M14.57 12.19H13.04V15.24H14.57V12.19Z" fill="currentColor"/>
<path d="M13.0401 16.76H11.5201V18.29H13.0401V16.76Z" fill="currentColor"/>
<path d="M13.0401 9.14H11.5201V10.67H13.0401V9.14Z" fill="currentColor"/>
<path d="M11.5201 24.38H9.99011V25.91H11.5201V24.38Z" fill="currentColor"/>
<path d="M11.5201 21.33H9.99011V22.86H11.5201V21.33Z" fill="currentColor"/>
<path d="M11.5201 10.67H9.99011V16.76H11.5201V10.67Z" fill="currentColor"/>
<path d="M9.99009 25.91H8.47009V27.43H9.99009V25.91Z" fill="currentColor"/>
<path d="M9.99009 19.81H8.47009V21.33H9.99009V19.81Z" fill="currentColor"/>
<path d="M26.7601 6.1V4.57H23.7101V3.05H22.1801V1.52H20.6601V0H13.0401V1.52H11.5201V3.05H9.99007V4.57H6.95007V6.1H26.7601Z" fill="currentColor"/>
<path d="M8.47007 18.29H6.95007V19.81H8.47007V18.29Z" fill="currentColor"/>
<path d="M3.90012 28.95H2.37012V30.48H3.90012V28.95Z" fill="currentColor"/>
<path d="M2.3701 15.24H3.9001V16.76H5.4201V18.29H6.9501V6.1H5.4201V9.14H3.9001V10.67H2.3701V12.19H0.850098V28.95H2.3701V15.24Z" fill="currentColor"/>
</g>
<defs>
<clipPath id="clip0_1128_7916">
<rect width="32" height="32" fill="white" transform="translate(0.850098)"/>
</clipPath>
</defs>
</svg>
