<svg xmlns="http://www.w3.org/2000/svg" viewBox="0 0 24 24" id="Social-Rewards-Rating-Star-1--Streamline-Pixel" height="24" width="24"><desc>Social Rewards Rating Star 1 Streamline Icon: https://streamlinehq.com</desc><title>social-rewards-rating-star-1</title><g><path d="M22.86 9.1425H24v1.1400000000000001h-1.1400000000000001Z" fill="currentColor" stroke-width="0.75"></path><path d="M21.7125 10.2825h1.1475v1.1400000000000001h-1.1475Z" fill="currentColor" stroke-width="0.75"></path><path d="M20.572499999999998 20.572499999999998h1.1400000000000001v2.2800000000000002h-1.1400000000000001Z" fill="currentColor" stroke-width="0.75"></path><path d="M19.424999999999997 18.285h1.1475v2.2874999999999996H19.424999999999997Z" fill="currentColor" stroke-width="0.75"></path><path d="M19.424999999999997 11.4225h2.2874999999999996v1.1475H19.424999999999997Z" fill="currentColor" stroke-width="0.75"></path><path d="M18.285 22.8525h2.2874999999999996V24h-2.2874999999999996Z" fill="currentColor" stroke-width="0.75"></path><path d="M18.285 15.997499999999999h1.1400000000000001v2.2874999999999996h-1.1400000000000001Z" fill="currentColor" stroke-width="0.75"></path><path d="M18.285 12.57h1.1400000000000001v1.1400000000000001h-1.1400000000000001Z" fill="currentColor" stroke-width="0.75"></path><path d="M17.145 21.7125h1.1400000000000001v1.1400000000000001h-1.1400000000000001Z" fill="currentColor" stroke-width="0.75"></path><path d="M17.145 13.71h1.1400000000000001v2.2874999999999996h-1.1400000000000001Z" fill="currentColor" stroke-width="0.75"></path><path d="M14.857499999999998 20.572499999999998h2.2874999999999996v1.1400000000000001h-2.2874999999999996Z" fill="currentColor" stroke-width="0.75"></path><path d="M15.997499999999999 7.995h6.862500000000001v1.1475h-6.862500000000001Z" fill="currentColor" stroke-width="0.75"></path><path d="M14.857499999999998 5.715h1.1400000000000001v2.2800000000000002h-1.1400000000000001Z" fill="currentColor" stroke-width="0.75"></path><path d="M13.7175 19.424999999999997h1.1400000000000001v1.1475h-1.1400000000000001Z" fill="currentColor" stroke-width="0.75"></path><path d="M13.7175 12.57h1.1400000000000001v1.1400000000000001h-1.1400000000000001Z" fill="currentColor" stroke-width="0.75"></path><path d="M13.7175 3.4275h1.1400000000000001v2.2874999999999996h-1.1400000000000001Z" fill="currentColor" stroke-width="0.75"></path><path d="M12.57 18.285h1.1475v1.1400000000000001h-1.1475Z" fill="currentColor" stroke-width="0.75"></path><path d="M12.57 10.2825h1.1475v1.1400000000000001h-1.1475Z" fill="currentColor" stroke-width="0.75"></path><path d="M12.57 1.1400000000000001h1.1475v2.2874999999999996h-1.1475Z" fill="currentColor" stroke-width="0.75"></path><path d="M11.43 17.137500000000003h1.1400000000000001v1.1475h-1.1400000000000001Z" fill="currentColor" stroke-width="0.75"></path><path d="M10.2825 13.71h3.435v1.1475h-3.435Z" fill="currentColor" stroke-width="0.75"></path><path d="M11.43 0h1.1400000000000001v1.1400000000000001h-1.1400000000000001Z" fill="currentColor" stroke-width="0.75"></path><path d="M10.2825 18.285h1.1475v1.1400000000000001h-1.1475Z" fill="currentColor" stroke-width="0.75"></path><path d="M10.2825 10.2825h1.1475v1.1400000000000001h-1.1475Z" fill="currentColor" stroke-width="0.75"></path><path d="M10.2825 1.1400000000000001h1.1475v2.2874999999999996h-1.1475Z" fill="currentColor" stroke-width="0.75"></path><path d="M9.1425 19.424999999999997h1.1400000000000001v1.1475h-1.1400000000000001Z" fill="currentColor" stroke-width="0.75"></path><path d="M9.1425 12.57h1.1400000000000001v1.1400000000000001h-1.1400000000000001Z" fill="currentColor" stroke-width="0.75"></path><path d="M9.1425 3.4275h1.1400000000000001v2.2874999999999996h-1.1400000000000001Z" fill="currentColor" stroke-width="0.75"></path><path d="M8.0025 5.715h1.1400000000000001v2.2800000000000002h-1.1400000000000001Z" fill="currentColor" stroke-width="0.75"></path><path d="M6.855 20.572499999999998h2.2874999999999996v1.1400000000000001H6.855Z" fill="currentColor" stroke-width="0.75"></path><path d="M5.715 21.7125h1.1400000000000001v1.1400000000000001H5.715Z" fill="currentColor" stroke-width="0.75"></path><path d="M5.715 13.71h1.1400000000000001v2.2874999999999996H5.715Z" fill="currentColor" stroke-width="0.75"></path><path d="M4.574999999999999 15.997499999999999h1.1400000000000001v2.2874999999999996H4.574999999999999Z" fill="currentColor" stroke-width="0.75"></path><path d="M4.574999999999999 12.57h1.1400000000000001v1.1400000000000001H4.574999999999999Z" fill="currentColor" stroke-width="0.75"></path><path d="M3.4275 22.8525h2.2874999999999996V24H3.4275Z" fill="currentColor" stroke-width="0.75"></path><path d="M3.4275 18.285H4.574999999999999v2.2874999999999996H3.4275Z" fill="currentColor" stroke-width="0.75"></path><path d="M2.2874999999999996 11.4225H4.574999999999999v1.1475H2.2874999999999996Z" fill="currentColor" stroke-width="0.75"></path><path d="M2.2874999999999996 20.572499999999998h1.1400000000000001v2.2800000000000002H2.2874999999999996Z" fill="currentColor" stroke-width="0.75"></path><path d="M1.1400000000000001 7.995h6.862500000000001v1.1475H1.1400000000000001Z" fill="currentColor" stroke-width="0.75"></path><path d="M1.1400000000000001 10.2825h1.1475v1.1400000000000001H1.1400000000000001Z" fill="currentColor" stroke-width="0.75"></path><path d="M0 9.1425h1.1400000000000001v1.1400000000000001H0Z" fill="currentColor" stroke-width="0.75"></path></g></svg>