<svg xmlns="http://www.w3.org/2000/svg" viewBox="0 0 24 24" id="Interface-Essential-Bin--Streamline-Pixel" height="24" width="24"><desc>Interface Essential Bin Streamline Icon: https://streamlinehq.com</desc><title>interface-essential-bin</title><g><path d="m19.42875 6.285 0 12.57 1.1475 0 0 -12.57 2.2800000000000002 0 0 -1.1400000000000001 -1.1400000000000001 0 0 -1.1475 -4.574999999999999 0 0 -2.2874999999999996 -1.1400000000000001 0 0 2.2874999999999996 -8.0025 0 0 -2.2874999999999996 -1.1400000000000001 0 0 2.2874999999999996 -4.5675 0 0 1.1475 -1.1475 0 0 1.1400000000000001 2.2874999999999996 0 0 12.57 1.1400000000000001 0 0 -12.57 14.857499999999998 0z" fill="currentColor" stroke-width="0.75"></path><path d="M18.28875 18.855h1.1400000000000001v3.4275h-1.1400000000000001Z" fill="currentColor" stroke-width="0.75"></path><path d="M5.71875 22.2825h12.57v1.1475H5.71875Z" fill="currentColor" stroke-width="0.75"></path><path d="M16.00125 8.5725h1.1400000000000001v9.1425h-1.1400000000000001Z" fill="currentColor" stroke-width="0.75"></path><path d="M14.861250000000002 17.715h1.1400000000000001v2.2800000000000002h-1.1400000000000001Z" fill="currentColor" stroke-width="0.75"></path><path d="M11.43375 8.5725h1.1400000000000001v11.4225h-1.1400000000000001Z" fill="currentColor" stroke-width="0.75"></path><path d="M7.998749999999999 0.5700000000000001h8.0025v1.1400000000000001h-8.0025Z" fill="currentColor" stroke-width="0.75"></path><path d="M7.998749999999999 17.715h1.1475v2.2800000000000002h-1.1475Z" fill="currentColor" stroke-width="0.75"></path><path d="M6.85875 8.5725h1.1400000000000001v9.1425h-1.1400000000000001Z" fill="currentColor" stroke-width="0.75"></path><path d="M4.57125 18.855h1.1475v3.4275h-1.1475Z" fill="currentColor" stroke-width="0.75"></path></g></svg>