<svg xmlns="http://www.w3.org/2000/svg" viewBox="0 0 944.12 251.21">
  <defs>
  </defs>
  <g id="Layer_2" data-name="Layer 2">
    <g id="logo" fill="currentColor">
      <polygon class="cls-1" points="95.12 93.94 95.12 151.18 111.56 165.41 111.72 165.24 111.72 96.09 102.33 86.82 95.12 93.94"></polygon>
      <polygon class="cls-1" points="176.55 196.51 181.41 200.97 181.41 98.4 176.55 103.37 176.55 196.51"></polygon>
      <polygon class="cls-1" points="54.38 94.6 54.38 151.34 68.63 163.42 73.83 157.63 73.83 98.24 62.09 86.82 54.38 94.6"></polygon>
      <path class="cls-1" d="M184.6,94.93v60c7.88,1,13.74,3.64,18.61,8.77l.16-.16v-69l-9.89-8.94Z"></path>
      <path class="cls-1" d="M0,0v251.2H251.2V0ZM132.85,149.36,98.31,180.79,75,160.94,57.23,180.79,33.09,160.27V127.85H28.4c-4.19,0-6.21,2.48-6.88,5.79H19.85a25.67,25.67,0,0,1-.84-6.29c0-4.3,1.84-15.55,14.08-15.55V86.66c0-9.76-6.54-10.26-6.54-18.7,0-9.43,9.06-18.2,25.65-24l1.51,1.33c-5.53,2.64-10.06,6-10.06,13.07,0,10.92,10.73,8.1,10.73,25.31V90.3L74,70,94.62,90l19.45-20,18.78,18.2ZM224.5,159l-29.34,21.84c-2.85-3.47-6.37-6.45-10.56-7.61v34.41l-.34.16L175,199.32,155.59,217l-.33-.17v-44.5a31.59,31.59,0,0,0-17.1,10.92l-1.35-.83c1.18-12.73,7.55-22.17,18.45-25.8V124.38h-3.52a8.77,8.77,0,0,0-8.89,6.94h-2a20.06,20.06,0,0,1-1.18-7.61c0-8.1,5.54-14.22,14.59-14.22h1V91.62l-6-5.3L144.53,91l-2.35-2.15L160.79,70l15.76,14.22v16.22l4.86-5.13v-19h3.19V92l21-22L224.5,87Z"></path>
      <polygon class="cls-1" points="886.35 93.25 886.35 73.06 921.72 73.06 933.49 47.37 886.35 47.37 886.35 29.02 929.33 29.02 941.1 3.33 874.61 3.33 859.74 35.75 859.74 118.95 932.33 118.95 944.12 93.25 886.35 93.25"></polygon>
      <path class="cls-1" d="M294.9,102.89a58,58,0,0,0,77.17,4.59,52.42,52.42,0,0,0,11.64-13.13,54.74,54.74,0,0,0,6.76-15.78l-28.16-1.83a24.62,24.62,0,0,1-8.55,12.2q-6.47,5.24-17.74,5.23a29.56,29.56,0,0,1-12-2.48,30.6,30.6,0,0,1-9.86-6.88,32.43,32.43,0,0,1-6.66-10.46A35,35,0,0,1,305,61.14a35,35,0,0,1,2.44-13.22,32.54,32.54,0,0,1,6.66-10.46A30.76,30.76,0,0,1,324,30.58a29.56,29.56,0,0,1,12-2.48,28.71,28.71,0,0,1,9.48,1.47,27.53,27.53,0,0,1,7.42,3.85,22.29,22.29,0,0,1,5.26,5.51,27,27,0,0,1,3.19,6.61l28.16-1.84a54.7,54.7,0,0,0-6.76-15.78A53.21,53.21,0,0,0,371.23,14.8a56.7,56.7,0,0,0-15.78-9A54.22,54.22,0,0,0,336,2.41a57.47,57.47,0,0,0-41.12,17A60,60,0,0,0,282.41,38.1a57.84,57.84,0,0,0-4.6,23,57.57,57.57,0,0,0,4.6,23.12A60.19,60.19,0,0,0,294.9,102.89Z"></path>
      <path class="cls-1" d="M428,80.41h13.77L462.84,119h29.37l-25.7-44a46.12,46.12,0,0,0,11.11-7.8,42.43,42.43,0,0,0,7.52-10.74q3.39-6.6,3.4-16.33a35.17,35.17,0,0,0-11.2-25.88,40.27,40.27,0,0,0-12.75-7.89,44.55,44.55,0,0,0-16.43-2.93h-46.8V119H428ZM428,29h20.19q7,0,10.83,3.67a12.16,12.16,0,0,1,3.85,9.18A12.12,12.12,0,0,1,459,51q-3.86,3.68-10.83,3.67H428Z"></path>
      <polygon class="cls-1" points="681.47 118.95 708.08 118.95 708.08 29.02 729.25 29.02 741.04 3.33 652.62 3.33 652.62 29.02 681.47 29.02 681.47 118.95"></polygon>
      <polygon class="cls-1" points="574.34 93.25 525.73 93.25 525.73 73.06 565.28 73.06 577.06 47.37 525.73 47.37 525.73 29.02 572.89 29.02 584.67 3.33 499.12 3.33 499.12 118.95 562.56 118.95 574.34 93.25"></polygon>
      <polygon class="cls-1" points="736.42 118.95 763.03 118.95 763.03 29.02 749.73 0 736.42 29.02 736.42 118.95"></polygon>
      <polygon class="cls-1" points="836.85 3.33 813.9 58.35 812.97 61.99 812.04 58.35 789.09 3.33 758.43 3.33 812.95 122.23 867.51 3.33 836.85 3.33"></polygon>
      <path class="cls-1" d="M625.63,119l11.78-25.69L648.13,119h30.66L624.25,0,569.68,119Zm-14.57-25.7,13.17-31.59,13.18,31.59Z"></path>
      <path class="cls-1" d="M334.7,207.52h25.69a24.84,24.84,0,0,1-3.12,5.51,22.71,22.71,0,0,1-5.23,5,26.74,26.74,0,0,1-7.52,3.67,32.22,32.22,0,0,1-9.82,1.38A28.29,28.29,0,0,1,323,220.64a29.81,29.81,0,0,1-9.64-6.88,32.59,32.59,0,0,1-6.51-10.46,37.73,37.73,0,0,1,0-26.43,32.7,32.7,0,0,1,6.51-10.46,30,30,0,0,1,9.64-6.88,28.29,28.29,0,0,1,11.74-2.48,29.12,29.12,0,0,1,9.27,1.38,24.77,24.77,0,0,1,7.25,3.76,23.66,23.66,0,0,1,5.14,5.32,26.42,26.42,0,0,1,3.12,6.06L387,171.73a55.06,55.06,0,0,0-17.9-28.17,53,53,0,0,0-34.41-12.2,54.92,54.92,0,0,0-22.11,4.5,55.48,55.48,0,0,0-18.08,12.48,59.9,59.9,0,0,0-12.2,18.71,61.44,61.44,0,0,0,0,46.16,60.11,60.11,0,0,0,12.2,18.63,55.63,55.63,0,0,0,18.08,12.48,54.91,54.91,0,0,0,22.11,4.49A47.63,47.63,0,0,0,348.47,247a59.6,59.6,0,0,0,10.27-4,46.05,46.05,0,0,0,9-6.06l4.58,11h18.36V185.5h-56Z"></path>
      <path class="cls-1" d="M477.89,196.05a42.44,42.44,0,0,0,7.53-10.74q3.39-6.6,3.39-16.33a35.11,35.11,0,0,0-11.19-25.88,40.21,40.21,0,0,0-12.76-7.89,44.46,44.46,0,0,0-16.42-2.93h-46.8V247.9h26.61V209.36H442l21.1,38.54h29.36l-25.69-44.05A45.84,45.84,0,0,0,477.89,196.05ZM459.27,180q-3.86,3.67-10.83,3.67H428.25V158h20.19q7,0,10.83,3.67a12.86,12.86,0,0,1,0,18.35Z"></path>
      <path class="cls-1" d="M590.75,148.34a55.59,55.59,0,0,0-18.08-12.48,55.9,55.9,0,0,0-62.3,12.48,60.1,60.1,0,0,0-12.21,18.71,61.56,61.56,0,0,0,0,46.16,60.31,60.31,0,0,0,12.21,18.63,55.59,55.59,0,0,0,18.07,12.48,56.71,56.71,0,0,0,44.23,0,55.74,55.74,0,0,0,18.08-12.48A60.29,60.29,0,0,0,603,213.21a61.44,61.44,0,0,0,0-46.16A60.08,60.08,0,0,0,590.75,148.34Zm-12.3,55a32.59,32.59,0,0,1-6.51,10.46,29.91,29.91,0,0,1-9.64,6.88,29.05,29.05,0,0,1-23.49,0,29.76,29.76,0,0,1-9.63-6.88,32.44,32.44,0,0,1-6.52-10.46,37.88,37.88,0,0,1,0-26.43,32.55,32.55,0,0,1,6.52-10.46,29.92,29.92,0,0,1,9.63-6.88,29.05,29.05,0,0,1,23.49,0,30.06,30.06,0,0,1,9.64,6.88,32.7,32.7,0,0,1,6.51,10.46,37.73,37.73,0,0,1,0,26.43Z"></path>
      <path class="cls-1" d="M794.07,143.75a39.17,39.17,0,0,0-13-8.44,43.83,43.83,0,0,0-16.52-3h-45V247.9h26.61V211.19h18.35a43.83,43.83,0,0,0,16.52-3,39.32,39.32,0,0,0,13-8.44,39.73,39.73,0,0,0,8.62-12.57,39.64,39.64,0,0,0,0-30.83A39.73,39.73,0,0,0,794.07,143.75ZM775,181.37a14.37,14.37,0,0,1-10.46,4.13H746.17V158h18.35A14.37,14.37,0,0,1,775,162.1a13.11,13.11,0,0,1,0,19.27Z"></path>
      <path class="cls-1" d="M681.82,132.28V201.1q0,10.46-5.25,16.24t-14.22,5.78q-9,0-14.23-5.78t-5.25-16.24V132.28H616.61V201.1A54.39,54.39,0,0,0,620,220.55a44,44,0,0,0,9.33,15,41.79,41.79,0,0,0,14.42,9.73,51.69,51.69,0,0,0,37.29,0,41.79,41.79,0,0,0,14.42-9.73,44,44,0,0,0,9.33-15,54.61,54.61,0,0,0,3.34-19.45V132.28Z"></path>
    </g>
  </g>
</svg>